# xmcd CD Database Entry
#
# Track frame offsets:
# 180
# 9350
# 25855
# 56087
# 74345
# 87530
# 111577
# 120737
# 137142
# 152997
# 163909
# 178590
# 193145
#
# Disc length: 3239 seconds
#
# Revision: 7
# Processed by: cddbd v1.4b42PL1 Copyright (c) Steve Scherf et al.
# Submitted via: tcd 2.0b
#
DISCID=be0ca50d
DTITLE=Boogie Chillen' - Chillen Of A Lesser God
DYEAR=1900
DGENRE=
TTITLE0=Nobody But You
TTITLE1=Dead and Gone
TTITLE2=Whiskey
TTITLE3=Good Morning Little Schoolgirl
TTITLE4=Food Stamps
TTITLE5=Bad Boy
TTITLE6=Party Girl
TTITLE7=$1.20 Blues
TTITLE8=Landlady
TTITLE9=Those Lonely, Lonely Nights
TTITLE10=Rocking
TTITLE11=Bad Luck and Trouble
TTITLE12=Aw Baby
EXTD=
EXTT0=
EXTT1=
EXTT2=
EXTT3=
EXTT4=
EXTT5=
EXTT6=
EXTT7=
EXTT8=
EXTT9=
EXTT10=
EXTT11=
EXTT12=
PLAYORDER=
